<svg xmlns="http://www.w3.org/2000/svg" width="256" height="289" preserveAspectRatio="xMidYMid"><path fill="#F41C52" d="M114.621 56.42 20.201 1.806a13.456 13.456 0 0 0-18.395 4.94A13.506 13.506 0 0 0 0 13.49v109.228a13.506 13.506 0 0 0 6.735 11.684 13.453 13.453 0 0 0 13.467.002l94.42-54.614a13.484 13.484 0 0 0 4.93-4.939 13.507 13.507 0 0 0-4.93-18.431Zm0 152.103-94.42-54.614a13.455 13.455 0 0 0-18.395 4.94A13.505 13.505 0 0 0 0 165.596v109.227c0 2.368.624 4.694 1.806 6.745a13.479 13.479 0 0 0 4.93 4.938 13.443 13.443 0 0 0 13.466.002l94.42-54.614a13.475 13.475 0 0 0 4.93-4.938 13.51 13.51 0 0 0-4.93-18.432Zm134.644-76.037-94.42-54.613a13.455 13.455 0 0 0-18.395 4.94 13.503 13.503 0 0 0-1.806 6.745v109.227c0 2.368.623 4.694 1.806 6.746a13.484 13.484 0 0 0 4.929 4.937 13.447 13.447 0 0 0 13.466.003l94.42-54.614a13.485 13.485 0 0 0 4.93-4.94 13.515 13.515 0 0 0 0-13.492 13.485 13.485 0 0 0-4.93-4.939Z"/></svg>